<svg xmlns="http://www.w3.org/2000/svg" width="97" height="96" fill="none">
  <rect width="96" height="96" x=".5" fill="#080B27" rx="48"/>
  <path fill="#204FFE" d="M48.316 21.488a4 4 0 0 1 5.656-.6L67.02 31.544a4 4 0 0 1 1 4.98A11.997 11.997 0 0 0 64.5 36h-1.2l1.192-1.36-6.872-5.612-5.668 6.976h-5.156L54.52 26.5l-3.08-2.516L41.848 36h-5.12l11.588-14.512ZM58.5 56a2 2 0 0 0 0 4h4a2 2 0 0 0 0-4h-4Zm-30-18a2 2 0 0 1 2-2h2.232l3.18-4H30.5a6 6 0 0 0-6 6v24a10 10 0 0 0 10 10h30a8 8 0 0 0 8-8V48a8 8 0 0 0-8-8h-34a2 2 0 0 1-2-2Zm0 24V43.66c.624.22 1.3.34 2 .34h34a4 4 0 0 1 4 4v16a4 4 0 0 1-4 4h-30a6 6 0 0 1-6-6Z"/>
  <path fill="#EB3795" stroke="#EB3795" stroke-linecap="round" stroke-linejoin="round" stroke-width="2.625" d="M66.5 72.938c6.04 0 10.938-4.897 10.938-10.938 0-6.04-4.897-10.938-10.938-10.938-6.04 0-10.938 4.897-10.938 10.938 0 6.04 4.897 10.938 10.938 10.938Z"/>
  <path stroke="white" stroke-linecap="round" stroke-linejoin="round" stroke-width="2.625" d="m70.438 58.063-7.876 7.874m0-7.874 7.876 7.874"/>
</svg>
