<svg xmlns="http://www.w3.org/2000/svg" width="33" height="32" fill="none">
  <g opacity=".3">
    <mask id="a" fill="white">
      <path d="M32.5 16c0 8.837-7.163 16-16 16S.5 24.837.5 16s7.163-16 16-16 16 7.163 16 16Zm-28 0c0 6.627 5.373 12 12 12s12-5.373 12-12-5.373-12-12-12-12 5.373-12 12Z"/>
    </mask>
    <path stroke="#6E758B" stroke-width="6" d="M32.5 16c0 8.837-7.163 16-16 16S.5 24.837.5 16s7.163-16 16-16 16 7.163 16 16Zm-28 0c0 6.627 5.373 12 12 12s12-5.373 12-12-5.373-12-12-12-12 5.373-12 12Z" mask="url(#a)"/>
  </g>
  <path fill="#20FE51" d="M16.5 2c0-1.105.899-2.013 1.995-1.875a16 16 0 0 1 13.88 13.88C32.513 15.101 31.605 16 30.5 16s-1.983-.902-2.166-1.99a12.005 12.005 0 0 0-7.242-9.097 12.001 12.001 0 0 0-2.601-.747C17.4 3.983 16.5 3.105 16.5 2Z"/>
</svg>
