<svg xmlns="http://www.w3.org/2000/svg" aria-hidden="true" style="position:absolute;width:0;height:0;overflow:hidden">
  <defs>
    
    <symbol id="logo" viewBox="0 0 56 32">
      <path fill="#fff" d="M5.451 31.2a5.43 5.43 0 0 1-2.766-.729c-.814-.513-1.464-1.175-1.953-1.986S0 26.77 0 25.77V13.128c0-1 .244-1.904.732-2.715s1.139-1.459 1.953-1.945a5.212 5.212 0 0 1 2.766-.77h13.708V-.001H24v31.2H5.451zm.203-4.822h12.732a.718.718 0 0 0 .529-.203.774.774 0 0 0 .244-.567V13.29a.652.652 0 0 0-.244-.527.658.658 0 0 0-.529-.243H5.654a.78.78 0 0 0-.569.243.71.71 0 0 0-.203.527v12.318a.86.86 0 0 0 .203.567.866.866 0 0 0 .569.203zM55.2 28.089 45.422 19.2l9.778-8.889L51.778 7.2 42 16.089 32.222 7.2 28.8 10.311l9.778 8.889-9.778 8.889 3.422 3.111L42 22.311l9.778 8.889 3.422-3.111z"/>
    </symbol>
   
    <symbol id="search" viewBox="0 0 32 32">
      <path d="m31.008 27.231-7.58-6.447c-.784-.705-1.622-1.029-2.299-.998a11.954 11.954 0 0 0 2.87-7.787c0-6.627-5.373-12-12-12s-12 5.373-12 12 5.373 12 12 12c2.972 0 5.691-1.081 7.787-2.87-.031.677.293 1.515.998 2.299l6.447 7.58c1.104 1.226 2.907 1.33 4.007.23s.997-2.903-.23-4.007zM12 20a8 8 0 1 1 0-16 8 8 0 0 1 0 16z"/>
    </symbol>
    <symbol id="arrow_icon" viewBox="0 0 32 32">
      <path fill="none" stroke="#fff" stroke-linecap="round" stroke-linejoin="round" stroke-width="2.824" d="M14.995 25.726 31.172 9.412m0 0v15.661m0-15.661H15.643" style="stroke:var(--color5, #fff)"/>
    </symbol>
    <symbol id="arrow-up" viewBox="0 0 32 32">
      <path fill="none" stroke="#fff" stroke-linecap="round" stroke-linejoin="round" stroke-width="3.333" d="M9.333 12 16 18.667 22.667 12" style="stroke:var(--color1, #fff)"/>
    </symbol>
    <symbol id="simple_loader" viewBox="0 0 33 32">
      <path fill="none" stroke="#6e758b" stroke-width="6" d="M32.5 16c0 8.837-7.163 16-16 16S.5 24.837.5 16s7.163-16 16-16 16 7.163 16 16zm-28 0c0 6.627 5.373 12 12 12s12-5.373 12-12-5.373-12-12-12-12 5.373-12 12z" opacity=".3" style="stroke:var(--color1, #6e758b)"/>
      <path fill="#20fe51" d="M16.5 2c0-1.105.899-2.013 1.995-1.875a16.016 16.016 0 0 1 9.319 4.561 15.989 15.989 0 0 1 4.561 9.319C32.513 15.101 31.604 16 30.5 16s-1.983-.902-2.166-1.991a11.999 11.999 0 0 0-9.842-9.842c-1.089-.183-1.991-1.062-1.991-2.166z" style="fill:var(--color2, #20fe51)"/>
    </symbol>
    <symbol id="error_icon" viewBox="0 0 32 32">
      <path fill="#fe2d20" d="M32 16c0 8.837-7.163 16-16 16S0 24.837 0 16 7.163 0 16 0s16 7.163 16 16z" style="fill:var(--color3, #fe2d20)"/>
      <path fill="none" stroke="#080808" stroke-linecap="round" stroke-linejoin="round" stroke-width="1.333" d="m20 12-8 8m0-8 8 8" style="stroke:var(--color4, #080808)"/>
    </symbol>
    <symbol id="eth_icon" viewBox="0 0 32 32">
      <path fill="#204ffe" d="M16 32c8.836 0 16-7.164 16-16S24.836 0 16 0 0 7.164 0 16s7.164 16 16 16z" style="fill:var(--color5, #204ffe)"/>
      <path fill="#fff" d="M16.497 4v8.869l7.497 3.351L16.498 4z" opacity=".602" style="fill:var(--color6, #fff)"/>
      <path fill="#fff" d="M16.497 4 9 16.22l7.497-3.349V4z" style="fill:var(--color6, #fff)"/>
      <path fill="#fff" d="M16.497 21.968v6.027L24 17.616l-7.503 4.352z" opacity=".602" style="fill:var(--color6, #fff)"/>
      <path fill="#fff" d="M16.497 27.995v-6.027L9 17.615l7.497 10.379z" style="fill:var(--color6, #fff)"/>
      <path fill="#fff" d="m16.497 20.573 7.497-4.353-7.496-3.347v7.7z" opacity=".2" style="fill:var(--color6, #fff)"/>
      <path fill="#fff" d="m9 16.22 7.497 4.353v-7.701L9 16.22z" opacity=".602" style="fill:var(--color6, #fff)"/>
    </symbol>
    <symbol id="help_icon" viewBox="0 0 32 32">
      <path fill="none" stroke="#b3b3b3" style="stroke: var(--color1, #b3b3b3)" stroke-linejoin="round" stroke-linecap="round" stroke-miterlimit="4" stroke-width="2.3751" d="M11.769 12.472c0.309-0.877 0.918-1.617 1.72-2.089s1.745-0.644 2.661-0.486c0.917 0.157 1.748 0.634 2.347 1.345s0.927 1.612 0.925 2.542c0 2.626-3.938 3.938-3.938 3.938M15.59 22.974h0.013M28.718 16.41c0 7.25-5.878 13.128-13.128 13.128s-13.128-5.878-13.128-13.128c0-7.25 5.878-13.128 13.128-13.128s13.128 5.878 13.128 13.128z"></path>
     </symbol>
    <symbol id="not_connected_wallet" viewBox="0 0 32 32">
      <path fill="#080b27" d="M16.167 0c8.837 0 16 7.163 16 16s-7.163 16-16 16-16-7.163-16-16 7.163-16 16-16z" style="fill:var(--color8, #080b27)"/>
      <path fill="#204ffe" d="M16.105 7.163a1.333 1.333 0 0 1 1.888-.198l-.002-.002 4.349 3.552a1.331 1.331 0 0 1 .33 1.667l.003-.007A3.91 3.91 0 0 0 21.504 12h-.405l.397-.453-2.291-1.871-1.889 2.325h-1.719l2.575-3.168-1.027-.839-3.197 4.005h-1.707l3.863-4.837zM19.5 18.667a.667.667 0 1 0 0 1.334h1.333a.667.667 0 1 0 0-1.334H19.5zm-10-6c0-.368.298-.667.667-.667h.744l1.06-1.333h-1.804a2 2 0 0 0-2 2v8A3.333 3.333 0 0 0 11.5 24h10a2.667 2.667 0 0 0 2.667-2.667V16a2.667 2.667 0 0 0-2.667-2.667H10.167a.667.667 0 0 1-.667-.667zm0 8v-6.113c.208.073.433.113.667.113H21.5c.736 0 1.333.597 1.333 1.333v5.333c0 .736-.597 1.333-1.333 1.333h-10a2 2 0 0 1-2-2z" style="fill:var(--color5, #204ffe)"/>
      <path fill="#eb3795" stroke="#eb3795" stroke-linecap="round" stroke-linejoin="round" stroke-width=".875" d="M22.167 24.313a3.646 3.646 0 1 0 0-7.292 3.646 3.646 0 0 0 0 7.292z" style="fill:var(--color9, #eb3795);stroke:var(--color9, #eb3795)"/>
      <path fill="none" stroke="#fff" stroke-linecap="round" stroke-linejoin="round" stroke-width=".875" d="m23.479 19.354-2.625 2.625m0-2.625 2.625 2.625" style="stroke:var(--color6, #fff)"/>
    </symbol>
    <symbol id="successfull_icon" viewBox="0 0 31 32">
      <path fill="#20fe51" d="M31.03 16c0 8.569-6.946 15.515-15.515 15.515S0 24.569 0 16 6.946.485 15.515.485 31.03 7.431 31.03 16z" style="fill:var(--color2, #20fe51)"/>
      <path fill="none" stroke="#000" stroke-linecap="round" stroke-linejoin="round" stroke-width="1.293" d="m20.04 12.121-6.464 7.758-3.233-3.232" style="stroke:var(--color10, #000)"/>
    </symbol>
  </defs>
</svg>
